<?xml version="1.0" standalone="no"?>
<!DOCTYPE svg PUBLIC "-//W3C//DTD SVG 20010904//EN"
 "http://www.w3.org/TR/2001/REC-SVG-20010904/DTD/svg10.dtd">
<svg version="1.0" xmlns="http://www.w3.org/2000/svg"
 width="937.000000pt" height="937.000000pt" viewBox="0 0 937.000000 937.000000"
 preserveAspectRatio="xMidYMid meet">
<metadata>
Created by potrace 1.11, written by Peter Selinger 2001-2013
</metadata>
<g transform="translate(0.000000,937.000000) scale(0.100000,-0.100000)"
fill="#000000" stroke="none">
<path d="M5958 7814 c-2 -1 -55 -5 -118 -8 -63 -4 -135 -8 -160 -10 -25 -2
-81 -7 -125 -10 -44 -4 -91 -9 -105 -11 -14 -2 -59 -6 -100 -10 -41 -3 -82 -8
-90 -10 -8 -2 -35 -7 -60 -10 -126 -17 -370 -60 -485 -87 -71 -16 -139 -31
-150 -34 -45 -9 -65 -14 -185 -48 -69 -19 -144 -42 -168 -50 -23 -8 -46 -16
-50 -17 -70 -16 -343 -118 -502 -189 -364 -160 -742 -388 -1017 -611 -23 -19
-59 -47 -79 -64 -90 -72 -335 -310 -444 -430 -158 -174 -364 -453 -479 -646
-98 -163 -205 -372 -275 -534 -10 -22 -21 -49 -27 -60 -40 -88 -117 -320 -153
-459 -14 -55 -28 -101 -30 -104 -3 -2 -259 -5 -570 -6 -311 -1 -568 -5 -572
-8 -3 -4 4 -18 17 -31 13 -13 53 -57 89 -97 36 -40 70 -78 75 -84 26 -28 173
-194 200 -225 17 -19 39 -44 50 -55 23 -24 147 -164 191 -215 16 -19 36 -41
45 -50 9 -9 40 -43 69 -76 57 -64 188 -211 205 -229 6 -6 122 -137 259 -291
137 -154 254 -285 260 -290 6 -6 43 -46 81 -90 39 -43 77 -87 85 -95 20 -21
68 -75 160 -180 41 -47 82 -92 90 -100 8 -8 49 -53 90 -100 41 -47 89 -101
107 -120 17 -19 42 -47 55 -62 137 -156 203 -225 212 -221 6 2 85 92 175 198
90 107 171 203 180 212 9 10 106 124 216 253 190 224 237 279 260 304 6 6 35
40 65 76 30 35 65 76 77 90 12 14 108 126 214 250 105 124 215 251 243 284 28
32 53 62 56 66 3 4 26 32 52 61 49 57 405 473 596 697 81 95 108 132 95 133
-10 1 -314 0 -676 0 l-659 -1 7 77 c3 43 8 89 10 103 2 14 6 50 10 80 21 169
94 458 165 660 399 1121 1296 1902 2573 2239 107 29 274 68 327 77 14 2 39 7
55 11 17 3 39 7 50 9 11 2 47 8 80 14 63 11 99 17 163 25 20 3 48 7 62 10 14
2 54 7 90 10 36 3 76 7 90 9 14 3 66 8 115 11 50 4 104 9 120 10 17 2 45 3 64
4 95 3 -52 20 -321 36 -51 4 -122 9 -158 11 -66 6 -788 13 -792 8z"/>
<path d="M6905 7460 c-60 -72 -123 -145 -140 -164 -16 -18 -48 -55 -70 -81
-32 -38 -257 -302 -388 -455 -12 -14 -60 -70 -107 -125 -47 -55 -87 -102 -90
-105 -3 -3 -30 -34 -60 -70 -30 -36 -57 -67 -60 -70 -5 -5 -98 -114 -135 -159
-11 -13 -25 -29 -30 -35 -25 -27 -144 -166 -180 -210 -22 -27 -45 -54 -51 -60
-6 -6 -156 -182 -335 -391 -178 -209 -360 -422 -404 -473 -44 -51 -79 -96 -77
-100 1 -3 302 -7 670 -7 l667 0 -1 -25 c-2 -46 -14 -175 -18 -195 -4 -22 -18
-130 -18 -142 0 -5 -4 -18 -9 -29 -4 -12 -11 -41 -14 -65 -16 -107 -148 -548
-174 -584 -4 -5 -16 -32 -26 -60 -23 -64 -140 -300 -196 -397 -147 -254 -331
-490 -543 -697 -131 -129 -109 -109 -236 -212 -358 -290 -742 -498 -1215 -658
-190 -64 -503 -147 -660 -174 -16 -3 -68 -13 -115 -21 -75 -14 -296 -46 -420
-60 -98 -12 -266 -24 -339 -25 -84 -2 -47 -9 132 -26 218 -22 445 -30 812 -30
325 0 550 7 665 19 19 3 67 7 105 11 39 3 84 7 100 9 17 3 58 7 92 11 34 3 70
7 80 9 10 2 41 7 68 10 28 4 61 8 75 11 14 2 43 7 65 10 22 3 47 7 55 10 8 2
32 6 52 9 21 3 57 10 80 15 24 6 59 13 78 16 133 22 478 114 675 180 505 168
1052 458 1420 752 257 206 505 447 690 674 367 448 681 1054 809 1559 l24 95
573 3 c315 1 575 5 578 8 3 3 1 8 -4 12 -6 4 -64 68 -130 142 -66 74 -124 140
-130 146 -5 6 -39 44 -75 84 -36 40 -70 78 -75 84 -6 6 -66 74 -135 151 -69
77 -129 145 -135 151 -5 6 -39 44 -75 84 -36 40 -70 78 -75 84 -6 6 -50 56
-100 111 -49 55 -103 116 -121 135 -17 19 -89 100 -160 180 -71 80 -172 192
-223 250 -52 58 -166 186 -254 285 -88 99 -165 185 -171 190 -6 6 -99 109
-206 230 -107 121 -213 238 -235 262 l-40 42 -110 -129z"/>
</g>
</svg>
